<?xml version="1.0" encoding="utf-8"?>
<!-- Generator: Adobe Illustrator 16.0.0, SVG Export Plug-In . SVG Version: 6.00 Build 0)  -->
<!DOCTYPE svg PUBLIC "-//W3C//DTD SVG 1.1//EN" "http://www.w3.org/Graphics/SVG/1.1/DTD/svg11.dtd">
<svg version="1.1" id="Capa_1" xmlns="http://www.w3.org/2000/svg" xmlns:xlink="http://www.w3.org/1999/xlink" x="0px" y="0px"
	 width="83.54px" height="83.541px" viewBox="0 0 83.54 83.541" enable-background="new 0 0 83.54 83.541" xml:space="preserve">
<path fill="#363636" d="M41.77,0C18.704,0,0,18.705,0,41.771s18.704,41.771,41.77,41.771S83.54,64.836,83.54,41.771
	S64.835,0,41.77,0z M29.632,63.145H19.459V32.539h10.173V63.145z M24.545,28.36h-0.065c-3.414,0-5.622-2.351-5.622-5.287
	c0-3.003,2.275-5.288,5.756-5.288s5.621,2.285,5.688,5.288C30.301,26.01,28.094,28.36,24.545,28.36z M66.313,63.145H56.142V46.771
	c0-4.114-1.473-6.921-5.153-6.921c-2.811,0-4.484,1.893-5.22,3.721c-0.269,0.653-0.335,1.567-0.335,2.482v17.091H35.262
	c0,0,0.133-27.734,0-30.605h10.172v4.334c1.353-2.086,3.771-5.052,9.168-5.052c6.693,0,11.712,4.374,11.712,13.774V63.145z"/>
</svg>
