<?xml version="1.0" encoding="utf-8"?>
<!-- Generator: Adobe Illustrator 16.0.0, SVG Export Plug-In . SVG Version: 6.00 Build 0)  -->
<!DOCTYPE svg PUBLIC "-//W3C//DTD SVG 1.1//EN" "http://www.w3.org/Graphics/SVG/1.1/DTD/svg11.dtd">
<svg version="1.1" id="Capa_1" xmlns="http://www.w3.org/2000/svg" xmlns:xlink="http://www.w3.org/1999/xlink" x="0px" y="0px"
	 width="83.541px" height="83.541px" viewBox="0 0 83.541 83.541" enable-background="new 0 0 83.541 83.541" xml:space="preserve">
<g>
	<path fill="#363636" d="M49.766,41.771c0,4.415-3.58,7.995-7.995,7.995c-4.416,0-7.995-3.58-7.995-7.995
		c0-4.416,3.579-7.995,7.995-7.995C46.186,33.775,49.766,37.354,49.766,41.771z"/>
	<path fill="#363636" d="M60.468,27.624c-0.384-1.041-0.997-1.983-1.794-2.758c-0.773-0.796-1.716-1.409-2.758-1.794
		c-0.846-0.328-2.115-0.719-4.453-0.825c-2.53-0.115-3.289-0.141-9.692-0.141c-6.405,0-7.163,0.024-9.692,0.14
		c-2.338,0.107-3.609,0.498-4.453,0.826c-1.043,0.385-1.984,0.998-2.758,1.794c-0.797,0.774-1.41,1.716-1.795,2.758
		c-0.328,0.846-0.72,2.116-0.826,4.454c-0.115,2.529-0.14,3.287-0.14,9.692c0,6.404,0.024,7.163,0.14,9.692
		c0.106,2.339,0.498,3.608,0.826,4.453c0.385,1.042,0.998,1.984,1.793,2.758c0.775,0.797,1.717,1.41,2.759,1.795
		c0.845,0.328,2.116,0.719,4.454,0.825c2.529,0.116,3.287,0.14,9.691,0.14c6.406,0,7.164-0.023,9.692-0.14
		c2.339-0.106,3.608-0.497,4.454-0.825c2.092-0.808,3.744-2.461,4.552-4.553c0.328-0.845,0.719-2.114,0.826-4.453
		c0.115-2.529,0.14-3.288,0.14-9.692c0-6.405-0.024-7.163-0.14-9.692C61.188,29.74,60.797,28.47,60.468,27.624z M41.771,54.086
		c-6.803,0-12.317-5.514-12.317-12.316c0-6.802,5.515-12.316,12.317-12.316c6.802,0,12.315,5.515,12.315,12.316
		C54.086,48.572,48.572,54.086,41.771,54.086z M54.574,31.845c-1.59,0-2.879-1.288-2.879-2.878s1.289-2.879,2.879-2.879
		c1.589,0,2.878,1.289,2.878,2.879C57.451,30.557,56.163,31.845,54.574,31.845z"/>
	<path fill="#363636" d="M41.771,0C18.705,0,0,18.705,0,41.771s18.705,41.771,41.771,41.771s41.771-18.705,41.771-41.771
		S64.836,0,41.771,0z M65.611,51.659c-0.117,2.553-0.522,4.296-1.115,5.822c-1.246,3.222-3.793,5.769-7.016,7.015
		c-1.524,0.593-3.269,0.998-5.82,1.115c-2.559,0.116-3.375,0.145-9.889,0.145c-6.516,0-7.332-0.028-9.891-0.145
		c-2.553-0.117-4.296-0.522-5.82-1.115c-1.602-0.603-3.051-1.546-4.25-2.767c-1.219-1.198-2.162-2.647-2.766-4.248
		c-0.592-1.525-0.998-3.27-1.114-5.821c-0.118-2.559-0.146-3.376-0.146-9.89s0.027-7.331,0.145-9.889
		c0.115-2.554,0.521-4.297,1.114-5.822c0.603-1.601,1.547-3.051,2.767-4.248c1.198-1.221,2.648-2.165,4.248-2.767
		c1.526-0.593,3.27-0.998,5.822-1.115c2.559-0.116,3.375-0.145,9.89-0.145c6.514,0,7.331,0.028,9.888,0.146
		c2.554,0.116,4.297,0.521,5.822,1.113c1.602,0.603,3.051,1.547,4.25,2.768c1.219,1.198,2.164,2.647,2.766,4.248
		c0.594,1.525,0.998,3.269,1.115,5.822c0.117,2.558,0.145,3.375,0.145,9.889S65.729,49.102,65.611,51.659z"/>
</g>
</svg>
