<?xml version="1.0" encoding="utf-8"?>
<!-- Generator: Adobe Illustrator 16.0.0, SVG Export Plug-In . SVG Version: 6.00 Build 0)  -->
<!DOCTYPE svg PUBLIC "-//W3C//DTD SVG 1.1//EN" "http://www.w3.org/Graphics/SVG/1.1/DTD/svg11.dtd">
<svg version="1.1" id="Capa_1" xmlns="http://www.w3.org/2000/svg" xmlns:xlink="http://www.w3.org/1999/xlink" x="0px" y="0px"
	 width="83.751px" height="83.751px" viewBox="0 0 83.751 83.751" enable-background="new 0 0 83.751 83.751" xml:space="preserve">
<g>
	<path fill="#363636" d="M36.659,49.721l13.621-7.845L36.659,34.03V49.721z"/>
	<path fill="#363636" d="M41.876,0C18.752,0,0,18.752,0,41.876c0,23.123,18.752,41.875,41.876,41.875
		c23.123,0,41.875-18.752,41.875-41.875C83.751,18.752,64.999,0,41.876,0z M68.041,41.919c0,0,0,8.492-1.077,12.587
		c-0.604,2.242-2.371,4.01-4.613,4.612c-4.094,1.078-20.475,1.078-20.475,1.078s-16.338,0-20.477-1.121
		c-2.242-0.603-4.009-2.371-4.613-4.612c-1.077-4.052-1.077-12.587-1.077-12.587s0-8.492,1.077-12.587
		c0.604-2.242,2.415-4.053,4.613-4.656c4.096-1.077,20.477-1.077,20.477-1.077s16.381,0,20.475,1.12
		c2.242,0.604,4.01,2.371,4.613,4.613C68.085,33.384,68.041,41.919,68.041,41.919z"/>
</g>
</svg>
