<?xml version="1.0" encoding="utf-8"?>
<!-- Generator: Adobe Illustrator 16.0.0, SVG Export Plug-In . SVG Version: 6.00 Build 0)  -->
<!DOCTYPE svg PUBLIC "-//W3C//DTD SVG 1.1//EN" "http://www.w3.org/Graphics/SVG/1.1/DTD/svg11.dtd">
<svg version="1.1" id="Capa_1" xmlns="http://www.w3.org/2000/svg" xmlns:xlink="http://www.w3.org/1999/xlink" x="0px" y="0px"
	 width="83.424px" height="83.424px" viewBox="0 0 83.424 83.424" enable-background="new 0 0 83.424 83.424" xml:space="preserve">
<path fill="#363636" d="M41.712,0C18.679,0,0,18.679,0,41.712s18.679,41.712,41.712,41.712s41.712-18.679,41.712-41.712
	S64.745,0,41.712,0z M60.757,32.522c0.019,0.41,0.028,0.823,0.028,1.237c0,12.651-9.631,27.239-27.241,27.24h0.001h-0.001
	c-5.407,0-10.438-1.585-14.675-4.301c0.749,0.089,1.512,0.133,2.283,0.133c4.486,0,8.614-1.53,11.892-4.099
	c-4.191-0.077-7.726-2.846-8.944-6.649c0.584,0.111,1.184,0.173,1.799,0.173c0.874,0,1.721-0.118,2.525-0.337
	c-4.381-0.878-7.682-4.749-7.682-9.385c0-0.044,0-0.082,0.002-0.123c1.29,0.718,2.766,1.149,4.336,1.197
	c-2.57-1.715-4.26-4.647-4.26-7.969c0-1.754,0.474-3.397,1.296-4.813c4.722,5.793,11.777,9.603,19.734,10.003
	c-0.164-0.701-0.249-1.432-0.249-2.183c0-5.285,4.288-9.573,9.575-9.573c2.755,0,5.241,1.164,6.989,3.025
	c2.181-0.431,4.229-1.228,6.079-2.324c-0.716,2.235-2.233,4.11-4.21,5.296c1.936-0.232,3.782-0.746,5.498-1.508
	C64.252,29.484,62.627,31.171,60.757,32.522z"/>
</svg>
